<svg width="32" height="32" viewBox="0 0 32 32" fill="none" xmlns="http://www.w3.org/2000/svg">
  <!-- Folder base -->
  <path d="M2 8C2 6.89543 2.89543 6 4 6H12L14 8H28C29.1046 8 30 8.89543 30 10V26C30 27.1046 29.1046 28 28 28H4C2.89543 28 2 27.1046 2 26V8Z" fill="#6B46C1"/>
  <path d="M2 8C2 6.89543 2.89543 6 4 6H12L14 8H28C29.1046 8 30 8.89543 30 10V26C30 27.1046 29.1046 28 28 28H4C2.89543 28 2 27.1046 2 26V8Z" stroke="#5A3798" stroke-width="1.5"/>
  
  <!-- Folder top flap -->
  <path d="M2 10H30V12H2V10Z" fill="#8B5CF6"/>
  
  <!-- Lightning bolt icon on folder -->
  <path d="M18 14L14 19H16.5L16 24L20 19H17.5L18 14Z" fill="#FFD700" stroke="#FFA500" stroke-width="1" stroke-linejoin="round"/>
</svg>
