<svg width="32" height="32" viewBox="0 0 32 32" fill="none" xmlns="http://www.w3.org/2000/svg">
  <defs>
    <linearGradient id="folderOpenDragonGrad" x1="0%" y1="0%" x2="100%" y2="100%">
      <stop offset="0%" style="stop-color:#FF4500;stop-opacity:1" />
      <stop offset="50%" style="stop-color:#FF0000;stop-opacity:1" />
      <stop offset="100%" style="stop-color:#FF8C00;stop-opacity:1" />
    </linearGradient>
  </defs>
  
  <!-- Folder base (open) -->
  <path d="M2 8C2 6.89543 2.89543 6 4 6H12L14 8H28C29.1046 8 30 8.89543 30 10V12H2V8Z" 
        fill="#FF6347" 
        fill-opacity="0.85"/>
  <path d="M2 12V26C2 27.1046 2.89543 28 4 28H28C29.1046 28 30 27.1046 30 26V12H2Z" 
        fill="#FF7F50" 
        fill-opacity="0.9"/>
  <path d="M2 8C2 6.89543 2.89543 6 4 6H12L14 8H28C29.1046 8 30 8.89543 30 10V26C30 27.1046 29.1046 28 28 28H4C2.89543 28 2 27.1046 2 26V8Z" 
        stroke="url(#folderOpenDragonGrad)" 
        stroke-width="1.5"/>
  
  <!-- Folder flap highlight -->
  <path d="M2 10H30V12H2V10Z" fill="#FF4500" opacity="0.7"/>
  
  <!-- Open indicator -->
  <path d="M4 14L4 26" stroke="#FFD700" stroke-width="0.5" opacity="0.4"/>
  <path d="M28 14L28 26" stroke="#FFD700" stroke-width="0.5" opacity="0.4"/>
  
  <!-- Dragon icon on folder -->
  <g transform="translate(12, 14)">
    <!-- Dragon S-curve -->
    <path d="M4 1 Q2 2.5 3 4.5 Q4 6 2.5 7.5 Q2 9 3 10.5" 
          stroke="url(#folderOpenDragonGrad)" 
          stroke-width="2.5" 
          fill="none" 
          stroke-linecap="round"/>
    
    <!-- Dragon head -->
    <circle cx="4" cy="1.5" r="1.5" fill="#FFA500"/>
    
    <!-- Eye -->
    <circle cx="4.3" cy="1.3" r="0.4" fill="white"/>
    
    <!-- Horns -->
    <line x1="3.2" y1="1" x2="2.8" y2="0" stroke="#FF4500" stroke-width="0.8" stroke-linecap="round"/>
    <line x1="4.8" y1="1" x2="5.2" y2="0" stroke="#FF4500" stroke-width="0.8" stroke-linecap="round"/>
    
    <!-- Flame -->
    <path d="M3.5 4 L2.5 3.5 L3 5 Z" fill="#FFD700" opacity="0.8"/>
    <path d="M3.5 7 L2.5 6.5 L3 8 Z" fill="#FFD700" opacity="0.7"/>
  </g>
</svg>
